<?xml version="1.0" encoding="UTF-8"?>
<svg width="32" height="32" viewBox="0 0 32 32" fill="none" xmlns="http://www.w3.org/2000/svg">
  <!-- Background Circle -->
  <circle cx="16" cy="16" r="15" fill="#0F172A" />
  
  <!-- Brain Icon (based on Lucide Brain) -->
  <g transform="translate(4, 4) scale(0.15)">
    <path d="M81.324 83.48c10.24 0 18.4-7.2 19.76-16.56-18.4-.4-33.76-1.56-42.52-6.28-7.96-4.32-11.28-10.16-11.28-19.84 0-8.28 3.16-13.52 8.04-17.92a19.64 19.64 0 0 0 5.08-6.36c.68-1.4 1.24-3.04 1.24-4.72 0-8.36-6.36-13.76-15.08-13.76-8.72 0-15.08 5.4-15.08 13.76 0 1.68.56 3.32 1.24 4.72a19.64 19.64 0 0 0 5.08 6.36c4.88 4.4 8.04 9.64 8.04 17.92 0 9.68-4.2 15.52-12.04 19.84-6.8 3.76-17.16 5.48-29.76 6l-.48-.04C4.884 67 14.524 75 25.724 75c8.44 0 15.68-4.56 19.44-11.48 4.12 10.48 12.48 18.44 23.28 19.6a16.17 16.17 0 0 1 12.88.36Z" stroke="#3B82F6" stroke-width="24" stroke-linecap="round" stroke-linejoin="round"/>
    <path d="M81.324 83.48c10.24 0 18.4-7.2 19.76-16.56-18.4-.4-33.76-1.56-42.52-6.28-7.96-4.32-11.28-10.16-11.28-19.84 0-8.28 3.16-13.52 8.04-17.92a19.64 19.64 0 0 0 5.08-6.36c.68-1.4 1.24-3.04 1.24-4.72 0-8.36-6.36-13.76-15.08-13.76-8.72 0-15.08 5.4-15.08 13.76 0 1.68.56 3.32 1.24 4.72a19.64 19.64 0 0 0 5.08 6.36c4.88 4.4 8.04 9.64 8.04 17.92 0 9.68-4.2 15.52-12.04 19.84-6.8 3.76-17.16 5.48-29.76 6l-.48-.04C4.884 67 14.524 75 25.724 75c8.44 0 15.68-4.56 19.44-11.48 4.12 10.48 12.48 18.44 23.28 19.6a16.17 16.17 0 0 1 12.88.36Z" stroke="#FFFFFF" stroke-width="16" stroke-linecap="round" stroke-linejoin="round"/>
  </g>
</svg> 